<?xml version="1.0" encoding="UTF-8"?> <!-- Generator: Adobe Illustrator 23.1.1, SVG Export Plug-In . SVG Version: 6.00 Build 0) --> <svg xmlns="http://www.w3.org/2000/svg" xmlns:xlink="http://www.w3.org/1999/xlink" version="1.1" id="Livello_1" x="0px" y="0px" viewBox="0 0 257 52" width="257" height="52" style="enable-background:new 0 0 257 52;" xml:space="preserve"> <style type="text/css"> .st0{fill:#13100D;} .st1{fill:#FFD400;} .st2{fill:#E20613;} .st3{fill:#0080C8;} @media (prefers-color-scheme: dark) { .st0 { fill: #FFFFFF; } } </style> <path class="st0" d="M113.61,0.05c-10.88,0-18.48,6.67-18.48,17.7c0,4.84,1.46,8.83,4.02,11.8c2.97-1.4,6.24-2.39,8.94-3.06 c-3.67-2-4.35-6.03-4.35-8.74c0-3.72,1.28-9.95,9.87-9.95c8.59,0,9.87,6.23,9.87,9.95c0,0.74-0.05,1.57-0.2,2.44 c-0.06,0.55-0.18,1.15-0.39,1.8c-0.68,2.13-1.56,6.47,0.87,11.04c5.17-2.87,8.33-8.16,8.33-15.28 C132.09,6.72,124.48,0.05,113.61,0.05"></path> <path class="st1" d="M117.79,25.09c0,0-1.4,0.72-3.36,2.05c-3.9,2.63-10.03,7.64-11.94,14.14c-0.32,1.08-0.69,2.95-0.57,5.08 c0.18,3.35,3.21,5.84,6.55,5.57c3.35-0.27,5.57-3.19,5.57-6.55c0-2.45-1.04-4.74-1.22-7.12c-0.57-4.92,2.15-9.62,4.74-12.86 C117.7,25.2,117.79,25.09,117.79,25.09"></path> <path class="st2" d="M122.94,36.6c-6.21-8.37-1.17-15.59-1.17-15.59s-2.06,1.7-4.21,4.39c-2.59,3.25-5.31,7.94-4.74,12.86 c0.01,0.07,0.01,0.13,0.02,0.2c0.56,4.18,2.62,6.45,6.18,6.38c1.72-0.03,3.25-0.87,3.98-2.05C124.37,41.08,124.17,38.26,122.94,36.6 "></path> <rect y="0.43" class="st0" width="8.61" height="34.63"></rect> <rect x="53.95" y="0.43" class="st0" width="8.61" height="34.63"></rect> <path class="st0" d="M41.44,0.43c0,0-9.26,26.31-9.4,26.69c-0.14,0.38-0.37,0.59-0.82,0.59c-0.44,0-0.67-0.24-0.81-0.59 c-0.14-0.35-9.38-26.69-9.38-26.69h-9.03c0,0,9.48,26.98,10.31,29.35c0.83,2.37,3.36,5.66,8.91,5.66c5.55,0,8.11-3.38,8.91-5.66 c0.8-2.28,10.34-29.35,10.34-29.35H41.44z"></path> <path class="st0" d="M82.36,8.18H92.8V0.43H82.33v0C73.35,0.45,66.07,8.2,66.07,17.75s7.28,17.29,16.26,17.31v0H92.8v-7.75H82.36 c-4.17,0-7.69-4.38-7.69-9.57C74.67,12.56,78.19,8.18,82.36,8.18"></path> <path class="st0" d="M175.28,0.05c-10.88,0-18.48,6.67-18.48,17.7s7.6,17.7,18.48,17.7c10.88,0,18.48-6.67,18.48-17.7 S186.15,0.05,175.28,0.05 M175.28,27.7c-8.59,0-9.87-6.23-9.87-9.95s1.28-9.95,9.87-9.95c8.59,0,9.87,6.23,9.87,9.95 S183.87,27.7,175.28,27.7"></path> <path class="st0" d="M148.99,27.31c-2.82,0-4.85-1.71-4.85-4.58V0.43h-8.61v22.3c0,7.68,5.3,12.32,12.87,12.32h6.9v-7.75H148.99z"></path> <path class="st0" d="M218.76,22.61c-0.65-1.04-0.47-1.94,0.29-2.74l2.39-2.52c1.82-1.79,2.93-4.18,2.93-6.8 c0-5.57-5.02-10.09-11.21-10.09V0.43h-15.87v34.63h8.61V8.18h7.26v0c1.42,0.03,2.56,1.08,2.56,2.36c0,0.47-0.15,0.9-0.41,1.27 l-6.19,6.54c-1.06,1.16-1.16,2.83-0.29,4.2l7.87,12.51h9.89L218.76,22.61z"></path> <path class="st0" d="M243.82,34.97h-13.98v-7.73h13.98c2.15,0,3.69-0.25,4.33-1.33c0.34-0.58,0.41-1.48,0.06-2.12 c-0.43-0.81-1.67-1.31-2.64-1.59l-9.34-2.78c-2.87-0.86-5.16-2.66-6.43-5.12c-1.26-2.43-1.38-5.28-0.32-7.64 c1.28-2.84,4.34-6.23,11.67-6.23h14.63v7.73h-15.66c-1.53,0-2.36,0.5-2.69,1.4c-0.15,0.41-0.26,1.99,1.58,2.55 c0.91,0.28,3.8,1.13,9.2,2.74c4.63,1.38,6.76,3.79,7.72,5.6c1.31,2.46,1.39,5.46,0.21,8.22C254.95,31.55,251.82,34.97,243.82,34.97"></path> <path class="st3" d="M114.42,27.13c-1.06,0.18-14.96,2.58-19.79,8.54c-1.52,1.87-2.11,3.37-1.98,5.38c0.14,2.13,1.8,4.46,4.46,4.48 c3.87,0.03,5.18-3.62,5.37-4.26C104.4,34.77,110.53,29.76,114.42,27.13"></path> </svg> 