<svg version="1.1" id="Layer_1" xmlns="http://www.w3.org/2000/svg" xmlns:xlink="http://www.w3.org/1999/xlink" x="0px" y="0px"
	 width="100%" viewBox="0 0 2048 2048" enable-background="new 0 0 2048 2048" xml:space="preserve">
<path fill="#FFFFFF" opacity="1.000000" stroke="none" 
	d="
M1506.387695,1164.208618 
	C1508.806274,1160.601807 1511.224731,1156.995117 1513.643311,1153.388306 
	C1513.329102,1153.117676 1513.014771,1152.847046 1512.700562,1152.576416 
	C1509.017212,1155.993774 1505.333740,1159.411133 1501.115356,1163.202148 
	C1498.428711,1165.611084 1495.629028,1167.906494 1493.073975,1170.447754 
	C1477.197998,1186.236694 1460.999512,1201.725220 1445.646729,1218.009888 
	C1431.212646,1233.320312 1417.690186,1249.490356 1403.055664,1265.281006 
	C1392.905640,1270.995483 1382.720581,1276.648804 1372.615479,1282.441895 
	C1362.963379,1287.975464 1353.222900,1293.383545 1343.833130,1299.338501 
	C1332.108276,1306.774414 1320.702148,1314.713257 1308.327515,1322.094971 
	C1305.044556,1322.487427 1301.725220,1322.687256 1298.484253,1323.301514 
	C1250.274292,1332.436157 1202.427612,1343.149780 1155.035522,1355.913086 
	C1097.976440,1371.280151 1041.747925,1389.160278 986.980408,1411.398560 
	C926.380615,1436.005005 868.027649,1464.786865 815.778809,1504.787476 
	C778.968811,1532.968384 748.430054,1566.671021 725.958496,1607.260376 
	C703.216797,1648.337524 697.102905,1692.020142 709.171875,1737.563232 
	C716.714661,1766.026855 732.213440,1790.067993 755.536133,1808.116333 
	C794.759644,1838.469849 838.321045,1840.165527 883.189697,1823.732300 
	C915.826416,1811.778931 939.601501,1788.461670 957.393677,1759.067871 
	C963.656006,1748.722046 968.609619,1737.584229 974.271545,1727.985352 
	C973.558228,1731.044434 972.685913,1734.076294 972.157776,1737.166992 
	C969.137146,1754.843384 965.018066,1772.435913 963.538513,1790.245117 
	C961.792603,1811.259766 961.743408,1832.475342 962.060059,1853.587280 
	C962.522766,1884.443970 972.236023,1912.686890 989.518921,1938.125122 
	C1003.854736,1959.225586 1022.347473,1976.099121 1044.453369,1988.945801 
	C1056.805786,1996.124146 1069.946045,2001.258057 1083.584595,2005.535278 
	C1097.934204,2010.035767 1112.667114,2011.496094 1127.434204,2012.682495 
	C1133.951904,2013.206055 1140.618530,2011.594727 1147.233032,2011.248901 
	C1163.193970,2010.414307 1178.502197,2006.445923 1193.138428,2000.485718 
	C1214.525635,1991.776733 1233.219849,1978.799927 1249.094116,1961.914551 
	C1267.857910,1941.955811 1280.983521,1918.718018 1289.645020,1892.800781 
	C1295.852173,1874.227295 1299.012939,1855.131470 1299.559937,1835.647705 
	C1300.136108,1815.124146 1298.029053,1794.754517 1294.373169,1774.562866 
	C1292.630371,1764.937378 1290.754150,1755.329956 1288.651611,1745.777466 
	C1286.245483,1734.844727 1283.520752,1723.982178 1280.979614,1712.246704 
	C1281.364990,1710.456177 1281.750488,1708.665771 1282.807007,1707.189819 
	C1286.502686,1715.296021 1289.881226,1723.565186 1293.952148,1731.478271 
	C1307.062378,1756.961548 1324.911133,1778.299683 1349.827637,1793.051880 
	C1381.753540,1811.953613 1416.555786,1817.126831 1452.875854,1813.150269 
	C1500.243408,1807.963989 1536.584839,1784.709351 1558.747559,1742.551147 
	C1584.698120,1693.187744 1580.601685,1643.433228 1554.090942,1595.489868 
	C1544.069214,1577.366089 1530.685059,1561.135742 1519.860352,1543.415161 
	C1491.250122,1496.578491 1472.231934,1446.149658 1464.639648,1391.577393 
	C1456.496582,1333.044922 1462.373413,1275.888062 1482.114136,1220.337891 
	C1488.859863,1201.355347 1497.930664,1183.198975 1506.387695,1164.208618 
M1666.880249,1413.388306 
	C1690.094971,1386.595215 1710.274170,1357.646362 1726.940796,1326.393066 
	C1782.221558,1222.731567 1800.029907,1112.812134 1778.579468,997.340515 
	C1757.127197,881.859314 1701.376465,785.309448 1611.801025,709.222168 
	C1522.351807,633.242126 1418.293457,593.379700 1301.003052,589.304321 
	C1218.923340,586.452332 1140.704834,603.446045 1067.169800,640.077332 
	C949.890991,698.499512 868.002319,789.428467 820.682556,911.509766 
	C819.151917,915.458801 817.252319,916.199646 813.479858,916.196106 
	C710.149475,916.098938 606.819092,916.114075 503.488678,916.110535 
	C502.085419,916.110474 500.682129,916.110596 498.412567,916.110596 
	C592.673645,775.113037 686.410767,634.899170 780.147949,494.685333 
	C780.439575,494.784027 780.731262,494.882690 781.022949,494.981384 
	C781.022949,615.792297 781.022949,736.603149 781.022949,857.425110 
	C781.605469,857.425110 781.859192,857.480469 781.893799,857.416748 
	C782.367493,856.544739 782.829712,855.665222 783.259155,854.770447 
	C827.696411,762.170654 892.864746,687.607239 978.324768,630.742310 
	C980.980652,628.975037 981.985901,627.267334 981.984192,624.014282 
	C981.886658,439.186157 981.897461,254.358002 981.897461,69.529823 
	C981.897461,67.437790 981.897461,65.345757 981.897461,63.045258 
	C979.721924,63.045258 978.236145,63.045307 976.750427,63.045246 
	C945.084656,63.043953 913.418823,63.038040 881.753052,63.042564 
	C845.478088,63.047749 817.163391,78.149147 797.001770,108.226341 
	C754.349548,171.855103 711.839722,235.579346 669.266418,299.261047 
	C602.359070,399.341827 535.445190,499.418121 468.538849,599.499573 
	C395.704681,708.448120 322.909576,817.422852 250.024124,926.337097 
	C228.558060,958.414307 215.015198,993.432129 212.991959,1032.032959 
	C211.528519,1059.954224 212.357971,1087.995605 212.192703,1115.983521 
	C212.191208,1116.234741 212.572311,1116.488159 213.021317,1117.047852 
	C402.048950,1117.047852 591.318420,1117.047852 781.050110,1117.047852 
	C781.050110,1119.125854 781.050110,1120.918091 781.050110,1122.710327 
	C781.050049,1177.042114 780.949097,1231.374390 781.159058,1285.705444 
	C781.190369,1293.811768 781.779053,1302.127930 783.649353,1309.980347 
	C794.158630,1354.104004 831.867188,1383.647339 877.267761,1383.767456 
	C910.599792,1383.855591 943.932251,1383.815308 977.264526,1383.812500 
	C978.710266,1383.812378 980.156006,1383.613281 981.965576,1383.479980 
	C981.965576,1294.546631 981.965576,1205.958740 981.965576,1116.897217 
	C984.137878,1116.897217 985.924011,1116.897339 987.710144,1116.897217 
	C1059.541504,1116.894287 1131.372803,1116.904053 1203.204102,1116.880005 
	C1223.279419,1116.873169 1234.866089,1105.270874 1234.868408,1085.283203 
	C1234.873535,1039.284546 1234.862793,993.285828 1234.873047,947.287109 
	C1234.877319,928.056213 1223.024170,916.140320 1203.710815,916.132202 
	C1151.545776,916.110352 1099.380737,916.131531 1047.215698,916.117798 
	C1046.183960,916.117493 1045.152222,915.897461 1043.622192,915.723083 
	C1044.940308,913.872192 1045.876953,912.530640 1046.840210,911.208374 
	C1061.234863,891.448425 1077.828125,873.740845 1096.708008,858.217590 
	C1144.576782,818.859253 1199.299316,796.459656 1261.221558,791.952271 
	C1295.960205,789.423523 1330.024170,793.368408 1363.698730,802.003662 
	C1403.064453,812.098389 1439.464111,828.429382 1471.430542,853.647278 
	C1536.118042,904.678467 1574.553101,971.187866 1583.947144,1053.053955 
	C1593.111938,1132.922363 1575.620239,1206.163818 1522.145752,1268.275391 
	C1512.947632,1278.959106 1508.309204,1289.793823 1507.255127,1303.702637 
	C1503.115845,1358.322998 1509.607544,1411.106079 1532.192627,1461.383911 
	C1539.645020,1477.973755 1548.647583,1493.700439 1560.518555,1508.018066 
	C1599.604004,1480.687256 1635.396851,1450.002930 1666.880249,1413.388306 
z"/>
<path fill="#1C1B19" opacity="1.000000" stroke="none" 
	d="
M1666.647461,1413.655273 
	C1635.396851,1450.002930 1599.604004,1480.687256 1560.518555,1508.018066 
	C1548.647583,1493.700439 1539.645020,1477.973755 1532.192627,1461.383911 
	C1509.607544,1411.106079 1503.115845,1358.322998 1507.255127,1303.702637 
	C1508.309204,1289.793823 1512.947632,1278.959106 1522.145752,1268.275391 
	C1575.620239,1206.163818 1593.111938,1132.922363 1583.947144,1053.053955 
	C1574.553101,971.187866 1536.118042,904.678467 1471.430542,853.647278 
	C1439.464111,828.429382 1403.064453,812.098389 1363.698730,802.003662 
	C1330.024170,793.368408 1295.960205,789.423523 1261.221558,791.952271 
	C1199.299316,796.459656 1144.576782,818.859253 1096.708008,858.217590 
	C1077.828125,873.740845 1061.234863,891.448425 1046.840210,911.208374 
	C1045.876953,912.530640 1044.940308,913.872192 1043.622192,915.723083 
	C1045.152222,915.897461 1046.183960,916.117493 1047.215698,916.117798 
	C1099.380737,916.131531 1151.545776,916.110352 1203.710815,916.132202 
	C1223.024170,916.140320 1234.877319,928.056213 1234.873047,947.287109 
	C1234.862793,993.285828 1234.873535,1039.284546 1234.868408,1085.283203 
	C1234.866089,1105.270874 1223.279419,1116.873169 1203.204102,1116.880005 
	C1131.372803,1116.904053 1059.541504,1116.894287 987.710144,1116.897217 
	C985.924011,1116.897339 984.137878,1116.897217 981.965576,1116.897217 
	C981.965576,1205.958740 981.965576,1294.546631 981.965576,1383.479980 
	C980.156006,1383.613281 978.710266,1383.812378 977.264526,1383.812500 
	C943.932251,1383.815308 910.599792,1383.855591 877.267761,1383.767456 
	C831.867188,1383.647339 794.158630,1354.104004 783.649353,1309.980347 
	C781.779053,1302.127930 781.190369,1293.811768 781.159058,1285.705444 
	C780.949097,1231.374390 781.050049,1177.042114 781.050110,1122.710327 
	C781.050110,1120.918091 781.050110,1119.125854 781.050110,1117.047852 
	C591.318420,1117.047852 402.048950,1117.047852 213.021317,1117.047852 
	C212.572311,1116.488159 212.191208,1116.234741 212.192703,1115.983521 
	C212.357971,1087.995605 211.528519,1059.954224 212.991959,1032.032959 
	C215.015198,993.432129 228.558060,958.414307 250.024124,926.337097 
	C322.909576,817.422852 395.704681,708.448120 468.538849,599.499573 
	C535.445190,499.418121 602.359070,399.341827 669.266418,299.261047 
	C711.839722,235.579346 754.349548,171.855103 797.001770,108.226341 
	C817.163391,78.149147 845.478088,63.047749 881.753052,63.042564 
	C913.418823,63.038040 945.084656,63.043953 976.750427,63.045246 
	C978.236145,63.045307 979.721924,63.045258 981.897461,63.045258 
	C981.897461,65.345757 981.897461,67.437790 981.897461,69.529823 
	C981.897461,254.358002 981.886658,439.186157 981.984192,624.014282 
	C981.985901,627.267334 980.980652,628.975037 978.324768,630.742310 
	C892.864746,687.607239 827.696411,762.170654 783.259155,854.770447 
	C782.829712,855.665222 782.367493,856.544739 781.893799,857.416748 
	C781.859192,857.480469 781.605469,857.425110 781.022949,857.425110 
	C781.022949,736.603149 781.022949,615.792297 781.022949,494.981384 
	C780.731262,494.882690 780.439575,494.784027 780.147949,494.685333 
	C686.410767,634.899170 592.673645,775.113037 498.412567,916.110596 
	C500.682129,916.110596 502.085419,916.110474 503.488678,916.110535 
	C606.819092,916.114075 710.149475,916.098938 813.479858,916.196106 
	C817.252319,916.199646 819.151917,915.458801 820.682556,911.509766 
	C868.002319,789.428467 949.890991,698.499512 1067.169800,640.077332 
	C1140.704834,603.446045 1218.923340,586.452332 1301.003052,589.304321 
	C1418.293457,593.379700 1522.351807,633.242126 1611.801025,709.222168 
	C1701.376465,785.309448 1757.127197,881.859314 1778.579468,997.340515 
	C1800.029907,1112.812134 1782.221558,1222.731567 1726.940796,1326.393066 
	C1710.274170,1357.646362 1690.094971,1386.595215 1666.647461,1413.655273 
z"/>
<path fill="#FED303" opacity="1.000000" stroke="none" 
	d="
M1309.158447,1322.435059 
	C1320.702148,1314.713257 1332.108276,1306.774414 1343.833130,1299.338501 
	C1353.222900,1293.383545 1362.963379,1287.975464 1372.615479,1282.441895 
	C1382.720581,1276.648804 1392.905640,1270.995483 1403.357422,1265.586426 
	C1381.888550,1292.301514 1361.998535,1320.070923 1343.818848,1349.057739 
	C1324.553955,1379.775024 1307.740479,1411.779297 1294.311890,1445.487305 
	C1283.969482,1471.448730 1275.148926,1497.938721 1270.731934,1525.603760 
	C1267.831909,1543.768921 1264.737671,1562.087891 1264.251831,1580.404907 
	C1263.698853,1601.258667 1265.951050,1622.186768 1266.981079,1643.539795 
	C1268.274048,1652.986328 1269.570068,1661.975586 1270.921387,1671.368896 
	C1273.163086,1682.414307 1275.242188,1693.079468 1277.599976,1703.682617 
	C1278.316650,1706.905884 1279.801514,1709.958374 1280.934448,1713.089111 
	C1283.520752,1723.982178 1286.245483,1734.844727 1288.651611,1745.777466 
	C1290.754150,1755.329956 1292.630371,1764.937378 1294.373169,1774.562866 
	C1298.029053,1794.754517 1300.136108,1815.124146 1299.559937,1835.647705 
	C1299.012939,1855.131470 1295.852173,1874.227295 1289.645020,1892.800781 
	C1280.983521,1918.718018 1267.857910,1941.955811 1249.094116,1961.914551 
	C1233.219849,1978.799927 1214.525635,1991.776733 1193.138428,2000.485718 
	C1178.502197,2006.445923 1163.193970,2010.414307 1147.233032,2011.248901 
	C1140.618530,2011.594727 1133.951904,2013.206055 1127.434204,2012.682495 
	C1112.667114,2011.496094 1097.934204,2010.035767 1083.584595,2005.535278 
	C1069.946045,2001.258057 1056.805786,1996.124146 1044.453369,1988.945801 
	C1022.347473,1976.099121 1003.854736,1959.225586 989.518921,1938.125122 
	C972.236023,1912.686890 962.522766,1884.443970 962.060059,1853.587280 
	C961.743408,1832.475342 961.792603,1811.259766 963.538513,1790.245117 
	C965.018066,1772.435913 969.137146,1754.843384 972.157776,1737.166992 
	C972.685913,1734.076294 973.558228,1731.044434 974.214722,1727.322754 
	C979.097046,1711.990601 983.177612,1696.958740 989.176025,1682.735840 
	C998.236694,1661.252319 1008.143982,1640.085083 1018.650208,1619.267212 
	C1024.885010,1606.913208 1032.792358,1595.380981 1040.255981,1583.675903 
	C1047.168335,1572.835205 1053.773926,1561.682739 1061.777588,1551.678101 
	C1080.126587,1528.741699 1098.520020,1505.761230 1118.269287,1484.048462 
	C1135.870605,1464.697144 1154.962402,1446.645020 1174.070557,1428.739136 
	C1187.667358,1415.997681 1202.328369,1404.385254 1216.616089,1392.390137 
	C1228.930908,1382.051636 1241.015381,1371.384399 1253.874878,1361.762451 
	C1271.976807,1348.217529 1290.700684,1335.504028 1309.158447,1322.435059 
z"/>
<path fill="#0183C9" opacity="1.000000" stroke="none" 
	d="
M1308.742920,1322.265015 
	C1290.700684,1335.504028 1271.976807,1348.217529 1253.874878,1361.762451 
	C1241.015381,1371.384399 1228.930908,1382.051636 1216.616089,1392.390137 
	C1202.328369,1404.385254 1187.667358,1415.997681 1174.070557,1428.739136 
	C1154.962402,1446.645020 1135.870605,1464.697144 1118.269287,1484.048462 
	C1098.520020,1505.761230 1080.126587,1528.741699 1061.777588,1551.678101 
	C1053.773926,1561.682739 1047.168335,1572.835205 1040.255981,1583.675903 
	C1032.792358,1595.380981 1024.885010,1606.913208 1018.650208,1619.267212 
	C1008.143982,1640.085083 998.236694,1661.252319 989.176025,1682.735840 
	C983.177612,1696.958740 979.097046,1711.990601 974.159302,1726.734131 
	C968.609619,1737.584229 963.656006,1748.722046 957.393677,1759.067871 
	C939.601501,1788.461670 915.826416,1811.778931 883.189697,1823.732300 
	C838.321045,1840.165527 794.759644,1838.469849 755.536133,1808.116333 
	C732.213440,1790.067993 716.714661,1766.026855 709.171875,1737.563232 
	C697.102905,1692.020142 703.216797,1648.337524 725.958496,1607.260376 
	C748.430054,1566.671021 778.968811,1532.968384 815.778809,1504.787476 
	C868.027649,1464.786865 926.380615,1436.005005 986.980408,1411.398560 
	C1041.747925,1389.160278 1097.976440,1371.280151 1155.035522,1355.913086 
	C1202.427612,1343.149780 1250.274292,1332.436157 1298.484253,1323.301514 
	C1301.725220,1322.687256 1305.044556,1322.487427 1308.742920,1322.265015 
z"/>
<path fill="#FE0113" opacity="1.000000" stroke="none" 
	d="
M1266.984131,1643.082642 
	C1265.951050,1622.186768 1263.698853,1601.258667 1264.251831,1580.404907 
	C1264.737671,1562.087891 1267.831909,1543.768921 1270.731934,1525.603760 
	C1275.148926,1497.938721 1283.969482,1471.448730 1294.311890,1445.487305 
	C1307.740479,1411.779297 1324.553955,1379.775024 1343.818848,1349.057739 
	C1361.998535,1320.070923 1381.888550,1292.301514 1403.712891,1265.587036 
	C1417.690186,1249.490356 1431.212646,1233.320312 1445.646729,1218.009888 
	C1460.999512,1201.725220 1477.197998,1186.236694 1493.073975,1170.447754 
	C1495.629028,1167.906494 1498.428711,1165.611084 1501.748657,1163.074219 
	C1503.687500,1162.467529 1504.993164,1161.988892 1506.593994,1161.401978 
	C1506.354858,1162.593872 1506.146973,1163.629517 1505.939087,1164.665161 
	C1497.930664,1183.198975 1488.859863,1201.355347 1482.114136,1220.337891 
	C1462.373413,1275.888062 1456.496582,1333.044922 1464.639648,1391.577393 
	C1472.231934,1446.149658 1491.250122,1496.578491 1519.860352,1543.415161 
	C1530.685059,1561.135742 1544.069214,1577.366089 1554.090942,1595.489868 
	C1580.601685,1643.433228 1584.698120,1693.187744 1558.747559,1742.551147 
	C1536.584839,1784.709351 1500.243408,1807.963989 1452.875854,1813.150269 
	C1416.555786,1817.126831 1381.753540,1811.953613 1349.827637,1793.051880 
	C1324.911133,1778.299683 1307.062378,1756.961548 1293.952148,1731.478271 
	C1289.881226,1723.565186 1286.502686,1715.296021 1282.490723,1706.709473 
	C1281.966187,1704.941162 1281.878784,1703.619385 1281.530884,1702.370239 
	C1278.239380,1690.557373 1274.903564,1678.756714 1271.608643,1666.572754 
	C1270.085815,1658.489502 1268.534912,1650.786133 1266.984131,1643.082642 
z"/>
<path fill="#FBE1C2" opacity="1.000000" stroke="none" 
	d="
M1271.580566,1666.952637 
	C1274.903564,1678.756714 1278.239380,1690.557373 1281.530884,1702.370239 
	C1281.878784,1703.619385 1281.966187,1704.941162 1282.155029,1706.552246 
	C1281.750488,1708.665771 1281.364990,1710.456177 1280.957031,1712.667969 
	C1279.801514,1709.958374 1278.316650,1706.905884 1277.599976,1703.682617 
	C1275.242188,1693.079468 1273.163086,1682.414307 1270.978271,1671.032715 
	C1271.179932,1669.179077 1271.380249,1668.065918 1271.580566,1666.952637 
z"/>
<path fill="#E12542" opacity="1.000000" stroke="none" 
	d="
M1506.163330,1164.436890 
	C1506.146973,1163.629517 1506.354858,1162.593872 1506.593994,1161.401978 
	C1504.993164,1161.988892 1503.687500,1162.467529 1502.016113,1162.887451 
	C1505.333740,1159.411133 1509.017212,1155.993774 1512.700562,1152.576416 
	C1513.014771,1152.847046 1513.329102,1153.117676 1513.643311,1153.388306 
	C1511.224731,1156.995117 1508.806274,1160.601807 1506.163330,1164.436890 
z"/>
<path fill="#F7BD61" opacity="1.000000" stroke="none" 
	d="
M1271.608643,1666.572754 
	C1271.380249,1668.065918 1271.179932,1669.179077 1270.922852,1670.628662 
	C1269.570068,1661.975586 1268.274048,1652.986328 1266.980957,1643.539795 
	C1268.534912,1650.786133 1270.085815,1658.489502 1271.608643,1666.572754 
z"/>
</svg>